<?xml version="1.0" standalone="no"?>
<!DOCTYPE svg PUBLIC "-//W3C//DTD SVG 20010904//EN"
 "http://www.w3.org/TR/2001/REC-SVG-20010904/DTD/svg10.dtd">
<svg version="1.0" xmlns="http://www.w3.org/2000/svg"
 width="1074.000000pt" height="1280.000000pt" viewBox="0 0 1074.000000 1280.000000"
 preserveAspectRatio="xMidYMid meet">
<metadata>
Created by potrace 1.15, written by Peter Selinger 2001-2017
</metadata>
<g transform="translate(0.000000,1280.000000) scale(0.100000,-0.100000)"
fill="#00c7c4" stroke="none">
<path d="M7084 11968 c-263 -458 -614 -1069 -780 -1358 l-302 -525 -2991 -5
c-1644 -3 -2992 -8 -2994 -10 -3 -3 -8 -609 -12 -1347 l-7 -1343 2225 0 2225
0 -142 -243 c-77 -134 -312 -538 -521 -899 l-380 -655 -314 -6 c-173 -4 -937
-7 -1698 -7 l-1383 0 0 -367 c0 -203 -3 -810 -7 -1350 l-6 -983 926 -2 925 -3
-453 -790 c-249 -434 -452 -791 -451 -792 0 0 498 -289 1106 -642 l1105 -641
80 0 80 1 833 1443 832 1443 772 13 c511 9 1019 11 1503 6 1257 -11 2531 -25
3018 -32 l467 -6 0 1356 0 1356 -2113 2 -2113 3 381 681 c209 375 441 786 515
913 l135 232 485 -6 c803 -10 2302 -25 2513 -25 l197 0 0 1350 0 1350 -815 0
c-448 0 -815 2 -815 4 0 2 33 60 73 127 374 632 758 1302 751 1309 -5 4 -505
294 -1111 644 l-1103 636 -79 0 -79 0 -478 -832z"/>
</g>
</svg>
